# xmcd
#
# Track frame offsets: 
#        150
#        11445
#        22205
#        32845
#        44300
#        54050
#        67097
#        75427
#        84995
#        94672
#        105995
#        117620
#        127512
#        137042
#        146687
#        158137
#        171650
#        181275
#        192742
#        202832
#        212897
#        223895
#        235925
#        245795
#        256477
#
# Disc length: 3603 seconds
#
# Revision: 1
# Processed by: cddbd v1.5.2PL0 Copyright (c) Steve Scherf et al.
# Submitted via: ExactAudioCopyFreeDBPlugin 1.0
#
DISCID=680e1119
DTITLE=Arkie Shibley - Hot Rod Race
DYEAR=2003
DGENRE=Rock
TTITLE0=Hot Rod Race, Part 1
TTITLE1=Shore Leave
TTITLE2=Blue Guitar Ramble (instrumental)
TTITLE3=I'm a Poor Oakie
TTITLE4=Hot Rod Race, Part 2
TTITLE5=Blue Kelly Boogie (instrumental)
TTITLE6=Pick-Pick-Pickin' (On My Old Guitar)
TTITLE7=Guitar Hoedown (instrumental)
TTITLE8=Playing Dominoes and Shooting Dice
TTITLE9=Hard Times in Arkansas
TTITLE10=Dusty Blossom Boogie (instrumental)
TTITLE11=Arkie Meets the Judge - Hot Rod Race, Part 3
TTITLE12=Beautiful Coer d'Alene
TTITLE13=Fiddle Boogie (instrumental)
TTITLE14=Arkie's Talking Blues
TTITLE15=Arkie's Letter from Home
TTITLE16=Five String Banjo March (instrumental)
TTITLE17=I Wish I Was Somebody's Rose
TTITLE18=Hot Rod Race, Part 4 (The Guy in the Mercury)
TTITLE19=Hot Woodpecker Rag (instrumental)
TTITLE20=Dear Judge
TTITLE21=Mountain Dew Stomp (instrumental)
TTITLE22=Hot Rod Race, Part 5 (The Kid in the Model A)
TTITLE23=Rockaway (instrumental)
TTITLE24=You Put My Heart in Orbit
EXTD=
EXTT0=
EXTT1=
EXTT2=
EXTT3=
EXTT4=
EXTT5=
EXTT6=
EXTT7=
EXTT8=
EXTT9=
EXTT10=
EXTT11=
EXTT12=
EXTT13=
EXTT14=
EXTT15=
EXTT16=
EXTT17=
EXTT18=
EXTT19=
EXTT20=
EXTT21=
EXTT22=
EXTT23=
EXTT24=
PLAYORDER=
